<svg xmlns="http://www.w3.org/2000/svg" xmlns:xlink="http://www.w3.org/1999/xlink" fill="none" version="1.1" width="13.999999046325684" height="14.000015258789062" viewBox="0 0 13.999999046325684 14.000015258789062"><g><path d="M7,0C5.61553,0,4.26216,0.41054,3.11101,1.17971C1.95987,1.94888,1.06266,3.04213,0.532849,4.32122C0.00302923,5.6003,-0.135591,7.00776,0.134509,8.36563C0.404599,9.7235,1.07129,10.9708,2.05026,11.9497C3.02922,12.9287,4.2765,13.5954,5.63437,13.8655C6.99224,14.1356,8.3997,13.997,9.6788,13.4672C10.9579,12.9373,12.0511,12.0401,12.8203,10.889C13.5895,9.7378,14,8.38447,14,7C14,5.14348,13.2625,3.36301,11.9497,2.05025C10.637,0.7375,8.85652,0,7,0ZM7,13C5.81332,13,4.65328,12.6481,3.66658,11.9888C2.67989,11.3295,1.91085,10.3925,1.45673,9.2961C1.0026,8.19974,0.883779,6.99334,1.11529,5.82946C1.3468,4.66557,1.91825,3.59647,2.75736,2.75736C3.59648,1.91824,4.66558,1.3468,5.82946,1.11529C6.99335,0.88378,8.19975,1.0026,9.2961,1.45672C10.3925,1.91085,11.3295,2.67988,11.9888,3.66658C12.6481,4.65327,13,5.81331,13,7C13,8.5913,12.3679,10.1174,11.2426,11.2426C10.1174,12.3679,8.5913,13,7,13ZM10.7451,4.87476C10.7451,5.00736,10.6924,5.13453,10.5987,5.2283L6.34868,9.47849C6.15342,9.67375,5.83685,9.67376,5.64158,9.47851L3.40135,7.23852C3.30757,7.14475,3.25488,7.01757,3.25488,6.88495C3.25488,6.60881,3.47874,6.38495,3.75488,6.38495C3.88748,6.38495,4.01465,6.43762,4.10853,6.53149L5.99509,8.41784L9.89156,4.52121C9.98532,4.42744,10.1125,4.37476,10.2451,4.37476C10.5213,4.37476,10.7451,4.59861,10.7451,4.87476Z" fill-rule="evenodd" fill="#000000" fill-opacity="1"/></g></svg>